<svg width="1297" height="237" fill="none" xmlns="http://www.w3.org/2000/svg">
	<path
		d="M347.232.4c1.264 0 2.317.474 3.16 1.422.948.843 1.422 1.949 1.422 3.318v101.12c0 1.369-.474 2.528-1.422 3.476-.948.843-2.107 1.264-3.476 1.264-1.475 0-2.686-.421-3.634-1.264-.948-.948-1.422-2.107-1.422-3.476v-86.9l-37.13 56.248c-1.053 1.37-2.265 2.001-3.634 1.896h-.316c-1.264 0-2.423-.632-3.476-1.896l-37.13-56.564v87.216c0 1.369-.474 2.528-1.422 3.476-.843.843-1.949 1.264-3.318 1.264s-2.475-.421-3.318-1.264c-.843-.948-1.264-2.107-1.264-3.476V5.14c0-1.264.421-2.37 1.264-3.318C253.064.874 254.223.4 255.592.4c.737 0 1.527.21 2.37.632.843.316 1.475.79 1.896 1.422l41.396 62.094 41.712-62.094C344.125.874 345.547.189 347.232.4zm106.515 70.152c0 7.9-1.738 15.063-5.214 21.488-3.476 6.425-8.268 11.481-14.378 15.168-6.109 3.581-12.903 5.372-20.382 5.372-7.478 0-14.272-1.791-20.382-5.372-6.109-3.687-10.902-8.743-14.378-15.168-3.476-6.425-5.214-13.588-5.214-21.488s1.738-15.063 5.214-21.488c3.476-6.425 8.269-11.481 14.378-15.168 6.11-3.687 12.904-5.53 20.382-5.53 7.479 0 14.273 1.843 20.382 5.53 6.11 3.687 10.902 8.743 14.378 15.168 3.476 6.425 5.214 13.588 5.214 21.488zm-9.48 0c0-6.32-1.316-12.008-3.95-17.064-2.633-5.056-6.32-9.006-11.06-11.85-4.634-2.95-9.796-4.424-15.484-4.424-5.688 0-10.849 1.475-15.484 4.424-4.634 2.844-8.321 6.794-11.06 11.85-2.633 5.056-3.95 10.744-3.95 17.064 0 6.215 1.317 11.85 3.95 16.906 2.739 5.056 6.426 9.059 11.06 12.008 4.635 2.844 9.796 4.266 15.484 4.266 5.688 0 10.85-1.422 15.484-4.266 4.74-2.844 8.427-6.794 11.06-11.85 2.634-5.056 3.95-10.744 3.95-17.064zm103.447 0c0 7.9-1.738 15.063-5.214 21.488-3.476 6.425-8.268 11.481-14.378 15.168-6.109 3.581-12.903 5.372-20.382 5.372-7.478 0-14.272-1.791-20.382-5.372-6.109-3.687-10.902-8.743-14.378-15.168-3.476-6.425-5.214-13.588-5.214-21.488s1.738-15.063 5.214-21.488c3.476-6.425 8.269-11.481 14.378-15.168 6.11-3.687 12.904-5.53 20.382-5.53 7.479 0 14.273 1.843 20.382 5.53 6.11 3.687 10.902 8.743 14.378 15.168 3.476 6.425 5.214 13.588 5.214 21.488zm-9.48 0c0-6.32-1.316-12.008-3.95-17.064-2.633-5.056-6.32-9.006-11.06-11.85-4.634-2.95-9.796-4.424-15.484-4.424-5.688 0-10.849 1.475-15.484 4.424-4.634 2.844-8.321 6.794-11.06 11.85-2.633 5.056-3.95 10.744-3.95 17.064 0 6.215 1.317 11.85 3.95 16.906 2.739 5.056 6.426 9.059 11.06 12.008 4.635 2.844 9.796 4.266 15.484 4.266 5.688 0 10.85-1.422 15.484-4.266 4.74-2.844 8.427-6.794 11.06-11.85 2.634-5.056 3.95-10.744 3.95-17.064zm66.949-42.186c9.796 0 16.959 2.897 21.488 8.69 4.635 5.688 6.952 13.272 6.952 22.752v46.452c0 1.369-.474 2.528-1.422 3.476a4.837 4.837 0 01-3.318 1.264c-1.369 0-2.528-.421-3.476-1.264-.843-.948-1.264-2.107-1.264-3.476V60.282c0-6.847-1.738-12.377-5.214-16.59-3.371-4.319-8.637-6.478-15.8-6.478-4.529 0-8.848 1.053-12.956 3.16-4.003 2.107-7.268 4.95-9.796 8.532-2.528 3.476-3.792 7.268-3.792 11.376v45.978c0 1.369-.474 2.528-1.422 3.476-.843.843-1.949 1.264-3.318 1.264s-2.528-.421-3.476-1.264c-.843-.948-1.264-2.107-1.264-3.476V35.476c0-1.37.421-2.475 1.264-3.318.948-.948 2.107-1.422 3.476-1.422 1.369 0 2.475.474 3.318 1.422.948.843 1.422 1.949 1.422 3.318v8.69c2.844-4.53 6.899-8.269 12.166-11.218 5.372-3.055 10.849-4.582 16.432-4.582zm62.43 77.894c0 1.369-.474 2.528-1.422 3.476-.843.843-1.949 1.264-3.318 1.264-1.37 0-2.528-.421-3.476-1.264-.843-.948-1.264-2.107-1.264-3.476V33.58c0-1.37.421-2.475 1.264-3.318.948-.948 2.106-1.422 3.476-1.422 1.369 0 2.475.474 3.318 1.422.948.843 1.422 1.949 1.422 3.318v72.68zm-4.74-88.006c-2.107 0-3.74-.474-4.898-1.422-1.159-1.053-1.738-2.528-1.738-4.424v-1.58c0-1.896.579-3.318 1.738-4.266 1.264-1.053 2.949-1.58 5.056-1.58 4.213 0 6.32 1.949 6.32 5.846v1.58c0 1.896-.58 3.37-1.738 4.424-1.054.948-2.634 1.422-4.74 1.422zm24.785 79.948c-.843-1.37-1.264-2.528-1.264-3.476 0-1.37.684-2.423 2.054-3.16.632-.632 1.474-.948 2.528-.948 1.264 0 2.422.527 3.476 1.58 6.214 8.216 14.483 12.324 24.806 12.324 5.056 0 9.427-1.159 13.114-3.476 3.792-2.423 5.688-5.899 5.688-10.428 0-4.424-1.738-7.742-5.214-9.954-3.476-2.212-8.322-4.108-14.536-5.688-8.743-2.212-15.59-5.056-20.54-8.532-4.951-3.581-7.426-8.795-7.426-15.642 0-4.319 1.211-8.163 3.634-11.534 2.422-3.476 5.688-6.162 9.796-8.058 4.213-1.896 8.953-2.844 14.22-2.844 4.529 0 9.058.895 13.588 2.686 4.634 1.685 8.584 4.424 11.85 8.216.948.737 1.422 1.79 1.422 3.16 0 1.264-.527 2.37-1.58 3.318-.738.632-1.686.948-2.844.948-1.054 0-2.002-.421-2.844-1.264a24.949 24.949 0 00-9.006-6.478c-3.476-1.475-7.216-2.212-11.218-2.212-4.951 0-9.217 1.159-12.798 3.476-3.476 2.317-5.214 5.793-5.214 10.428.21 4.213 2.106 7.426 5.688 9.638 3.686 2.212 9.058 4.213 16.116 6.004 5.477 1.37 10.006 2.897 13.588 4.582 3.581 1.685 6.478 4.055 8.69 7.11 2.317 3.055 3.476 7.11 3.476 12.166 0 6.847-2.739 12.324-8.216 16.432-5.478 4.003-12.272 6.004-20.382 6.004-12.851 0-23.068-4.793-30.652-14.378zm174.55-69.678c1.37 0 2.476.421 3.318 1.264.948.843 1.422 2.001 1.422 3.476 0 .105-.158.79-.474 2.054l-24.332 72.68a7.426 7.426 0 01-2.054 2.37c-.842.527-1.738.737-2.686.632-.948 0-1.79-.263-2.528-.79-.737-.527-1.316-1.264-1.738-2.212l-20.698-48.664-18.486 48.664c-.421.843-1.053 1.58-1.896 2.212-.737.527-1.527.79-2.37.79a5.021 5.021 0 01-3.002-.632c-.842-.632-1.422-1.422-1.738-2.37l-24.964-72.68a4.529 4.529 0 01-.474-2.054c0-1.37.474-2.475 1.422-3.318.948-.948 2.107-1.422 3.476-1.422.948 0 1.791.316 2.528.948a4.036 4.036 0 011.738 2.212l21.014 63.042 18.802-47.242c.738-2.001 2.212-3.002 4.424-3.002 2.107 0 3.582 1 4.424 3.002l19.75 46.926 20.698-62.726c.632-2.107 2.107-3.16 4.424-3.16zm89.09 1.738c1.369 0 2.475.474 3.318 1.422.948.948 1.422 2.107 1.422 3.476v71.1c0 1.369-.474 2.528-1.422 3.476-.843.843-1.949 1.264-3.318 1.264s-2.528-.421-3.476-1.264c-.843-.948-1.264-2.107-1.264-3.476V95.674c-2.633 4.74-6.583 8.743-11.85 12.008-5.267 3.265-11.007 4.898-17.222 4.898-7.057 0-13.43-1.843-19.118-5.53-5.583-3.687-10.007-8.743-13.272-15.168-3.16-6.425-4.74-13.64-4.74-21.646 0-8.005 1.633-15.168 4.898-21.488 3.265-6.425 7.689-11.429 13.272-15.01 5.688-3.581 11.955-5.372 18.802-5.372 6.32 0 12.113 1.527 17.38 4.582 5.267 3.055 9.217 7.057 11.85 12.008V35.16c0-1.37.421-2.528 1.264-3.476.948-.948 2.107-1.422 3.476-1.422zm-32.864 73.47c5.477 0 10.375-1.422 14.694-4.266 4.424-2.95 7.847-6.952 10.27-12.008 2.528-5.161 3.792-10.902 3.792-17.222 0-6.11-1.264-11.692-3.792-16.748-2.423-5.056-5.846-9.006-10.27-11.85-4.319-2.95-9.217-4.424-14.694-4.424s-10.428 1.422-14.852 4.266c-4.319 2.844-7.742 6.794-10.27 11.85-2.423 4.95-3.634 10.586-3.634 16.906 0 6.32 1.211 12.06 3.634 17.222 2.423 5.056 5.793 9.059 10.112 12.008 4.424 2.844 9.427 4.266 15.01 4.266zM1019.17 29.63c6.95 0 13.27 1.79 18.96 5.372 5.69 3.476 10.11 8.374 13.27 14.694 3.27 6.215 4.9 13.22 4.9 21.014 0 7.9-1.63 15.01-4.9 21.33-3.16 6.215-7.58 11.113-13.27 14.694-5.58 3.581-11.85 5.372-18.8 5.372-6.11 0-11.75-1.422-16.91-4.266-5.055-2.949-9.11-6.847-12.165-11.692v41.712c0 1.369-.474 2.475-1.422 3.318-.843.948-1.949 1.422-3.318 1.422s-2.528-.474-3.476-1.422c-.843-.843-1.264-1.949-1.264-3.318V34.844c0-1.37.421-2.528 1.264-3.476.948-.948 2.107-1.422 3.476-1.422 1.369 0 2.475.474 3.318 1.422.948.948 1.422 2.107 1.422 3.476v10.744c2.739-4.95 6.689-8.848 11.845-11.692 5.17-2.844 10.85-4.266 17.07-4.266zm-.79 73.628c5.48 0 10.37-1.369 14.69-4.108 4.43-2.844 7.85-6.741 10.27-11.692 2.53-4.95 3.79-10.533 3.79-16.748 0-6.11-1.26-11.587-3.79-16.432-2.42-4.95-5.84-8.795-10.27-11.534-4.32-2.844-9.21-4.266-14.69-4.266-5.58 0-10.59 1.37-15.01 4.108-4.425 2.739-7.848 6.583-10.271 11.534-2.423 4.845-3.634 10.375-3.634 16.59s1.211 11.797 3.634 16.748c2.423 4.95 5.846 8.848 10.271 11.692 4.42 2.739 9.43 4.108 15.01 4.108zM32.784 191.2c.555 0 .981.171 1.28.512.341.341.512.768.512 1.28v40.96c0 .64-.192 1.152-.576 1.536-.384.341-.853.512-1.408.512-.299 0-.597-.064-.896-.192a2.429 2.429 0 01-.64-.448L3.6 198.368v35.904c0 .469-.192.875-.576 1.216a1.663 1.663 0 01-1.216.512c-.512 0-.939-.171-1.28-.512a1.661 1.661 0 01-.512-1.216V193.12c0-.597.17-1.067.512-1.408a1.961 1.961 0 011.344-.512c.683 0 1.195.235 1.536.704l27.584 37.184v-36.096c0-.512.17-.939.512-1.28.341-.341.768-.512 1.28-.512zm37.283 41.024c.554 0 1.002.192 1.344.576.383.384.576.832.576 1.344 0 .555-.192 1.003-.576 1.344-.342.341-.79.512-1.344.512H46.579c-.555 0-1.025-.171-1.409-.512-.34-.384-.512-.853-.512-1.408v-40.96c0-.555.171-1.003.512-1.344a1.915 1.915 0 011.408-.576h23.489c.554 0 1.002.192 1.344.576.383.341.576.789.576 1.344s-.192 1.003-.576 1.344c-.342.341-.79.512-1.344.512H48.69v16.064h18.495c.555 0 1.003.192 1.344.576.385.341.576.789.576 1.344s-.191 1.003-.575 1.344c-.342.341-.79.512-1.345.512H48.69v17.408h21.377zm39.191.896c.298.427.448.811.448 1.152 0 .597-.214 1.088-.64 1.472a1.961 1.961 0 01-1.344.512c-.64 0-1.152-.277-1.536-.832l-13.825-18.752-13.76 18.688c-.383.597-.895.896-1.535.896-.513 0-.94-.171-1.28-.512-.3-.384-.448-.789-.448-1.216 0-.427.149-.853.448-1.28l14.4-19.584L75.72 194.08a1.703 1.703 0 01-.448-1.152c0-.512.193-.96.577-1.344.426-.384.896-.576 1.407-.576.64 0 1.174.256 1.6.768l13.76 18.752 13.697-18.688c.469-.555.981-.832 1.536-.832.512 0 .938.171 1.28.512.384.299.576.683.576 1.152 0 .341-.15.747-.448 1.216l-14.4 19.648 14.4 19.584zm35.292-41.92c.555 0 1.003.171 1.344.512.384.341.576.789.576 1.344s-.192 1.003-.576 1.344c-.341.299-.789.448-1.344.448h-13.248v39.232c0 .555-.192 1.024-.576 1.408-.384.341-.853.512-1.408.512-.597 0-1.088-.171-1.472-.512-.341-.384-.512-.853-.512-1.408v-39.232h-13.248c-.555 0-1.024-.171-1.408-.512-.341-.341-.512-.789-.512-1.344 0-.512.171-.939.512-1.28.384-.341.853-.512 1.408-.512h30.464zm56.445 22.208c.555 0 1.003.192 1.344.576.384.341.576.789.576 1.344v15.424c0 .725-.32 1.301-.96 1.728-1.92 1.323-4.053 2.347-6.4 3.072a24.153 24.153 0 01-7.168 1.088c-4.352 0-8.277-1.003-11.776-3.008-3.499-2.005-6.251-4.757-8.256-8.256-2.005-3.499-3.008-7.424-3.008-11.776 0-4.352 1.003-8.277 3.008-11.776 2.005-3.499 4.757-6.251 8.256-8.256 3.499-2.005 7.424-3.008 11.776-3.008 2.261 0 4.437.277 6.528.832 2.133.555 4.032 1.344 5.696 2.368.597.384.896.917.896 1.6 0 .555-.192 1.024-.576 1.408-.341.384-.747.576-1.216.576a2.13 2.13 0 01-1.152-.32c-3.2-1.749-6.592-2.624-10.176-2.624-3.627 0-6.891.832-9.792 2.496-2.859 1.664-5.099 3.968-6.72 6.912-1.621 2.901-2.432 6.165-2.432 9.792s.811 6.912 2.432 9.856c1.621 2.901 3.861 5.184 6.72 6.848 2.901 1.664 6.165 2.496 9.792 2.496 1.835 0 3.669-.256 5.504-.768 1.877-.512 3.541-1.216 4.992-2.112v-12.672h-10.112c-.555 0-1.024-.171-1.408-.512a1.915 1.915 0 01-.576-1.408c0-.555.192-1.003.576-1.344a1.915 1.915 0 011.408-.576h12.224zm35.284 18.816c.555 0 1.003.192 1.344.576.384.384.576.832.576 1.344 0 .555-.192 1.003-.576 1.344-.341.341-.789.512-1.344.512h-23.488c-.555 0-1.024-.171-1.408-.512-.341-.384-.512-.853-.512-1.408v-40.96c0-.555.171-1.003.512-1.344a1.915 1.915 0 011.408-.576h23.488c.555 0 1.003.192 1.344.576.384.341.576.789.576 1.344s-.192 1.003-.576 1.344c-.341.341-.789.512-1.344.512h-21.376v16.064h18.496c.555 0 1.003.192 1.344.576.384.341.576.789.576 1.344s-.192 1.003-.576 1.344c-.341.341-.789.512-1.344.512h-18.496v17.408h21.376zm41.815-41.024c.555 0 .981.171 1.28.512.341.341.512.768.512 1.28v40.96c0 .64-.192 1.152-.576 1.536-.384.341-.853.512-1.408.512-.299 0-.597-.064-.896-.192a2.434 2.434 0 01-.64-.448l-27.456-36.992v35.904c0 .469-.192.875-.576 1.216a1.663 1.663 0 01-1.216.512c-.512 0-.939-.171-1.28-.512a1.663 1.663 0 01-.512-1.216V193.12c0-.597.171-1.067.512-1.408a1.961 1.961 0 011.344-.512c.683 0 1.195.235 1.536.704l27.584 37.184v-36.096c0-.512.171-.939.512-1.28.341-.341.768-.512 1.28-.512zm37.283 41.024c.554 0 1.002.192 1.344.576.384.384.576.832.576 1.344 0 .555-.192 1.003-.576 1.344-.342.341-.79.512-1.344.512h-23.488c-.555 0-1.024-.171-1.408-.512-.342-.384-.512-.853-.512-1.408v-40.96c0-.555.17-1.003.512-1.344a1.915 1.915 0 011.408-.576h23.488c.554 0 1.002.192 1.344.576.384.341.576.789.576 1.344s-.192 1.003-.576 1.344c-.342.341-.79.512-1.344.512h-21.376v16.064h18.496c.554 0 1.002.192 1.344.576.384.341.576.789.576 1.344s-.192 1.003-.576 1.344c-.342.341-.79.512-1.344.512h-18.496v17.408h21.376zm41.751.32c.64.427.96.96.96 1.6 0 .213-.086.491-.256.832a1.866 1.866 0 01-.704.704 1.902 1.902 0 01-.96.256c-.427 0-.79-.085-1.088-.256-1.195-.683-2.155-1.792-2.88-3.328-.726-1.536-1.088-3.989-1.088-7.36 0-2.987-.832-5.077-2.496-6.272-1.664-1.237-3.648-1.856-5.952-1.856h-14.208v17.216c0 .555-.171 1.024-.512 1.408-.342.341-.79.512-1.344.512-.598 0-1.11-.171-1.536-.512-.427-.384-.64-.853-.64-1.408v-40.96c0-.555.17-1.003.512-1.344a1.915 1.915 0 011.408-.576h17.28c2.432 0 4.608.533 6.528 1.6 1.92 1.024 3.413 2.453 4.48 4.288 1.109 1.835 1.664 3.904 1.664 6.208 0 2.731-.726 5.141-2.176 7.232-1.408 2.048-3.264 3.456-5.568 4.224 1.877.725 3.413 1.963 4.608 3.712 1.194 1.707 1.813 3.797 1.856 6.272.042 2.645.213 4.501.512 5.568.341 1.067.874 1.813 1.6 2.24zm-13.312-19.2a8.744 8.744 0 004.16-1.472c1.28-.853 2.304-2.005 3.072-3.456.768-1.451 1.152-3.115 1.152-4.992 0-2.432-.832-4.437-2.496-6.016-1.622-1.621-3.755-2.432-6.4-2.432h-14.848v18.368h15.36zm54.97 20.096c.086.341.128.597.128.768 0 .555-.192 1.003-.576 1.344a1.961 1.961 0 01-1.344.512c-.426 0-.81-.107-1.152-.32a2.685 2.685 0 01-.704-.96l-4.8-11.712h-20.8l-4.736 11.712c-.341.853-.917 1.28-1.728 1.28-.597 0-1.045-.149-1.344-.448-.298-.299-.469-.704-.512-1.216v-.192c0-.256.022-.448.064-.576l16.896-41.344c.342-.853.982-1.28 1.92-1.28.427 0 .79.128 1.088.384.342.213.598.512.768.896l16.832 41.152zm-9.984-14.144l-8.96-21.888-8.832 21.888h17.792zm41.451-28.096c.554 0 1.002.171 1.344.512.384.341.576.789.576 1.344s-.192 1.003-.576 1.344c-.342.299-.79.448-1.344.448h-13.248v39.232c0 .555-.192 1.024-.576 1.408-.384.341-.854.512-1.408.512-.598 0-1.088-.171-1.472-.512-.342-.384-.512-.853-.512-1.408v-39.232h-13.248c-.555 0-1.024-.171-1.408-.512-.342-.341-.512-.789-.512-1.344 0-.512.17-.939.512-1.28.384-.341.853-.512 1.408-.512h30.464zm12.192 42.816a2.158 2.158 0 01-.64 1.408 1.915 1.915 0 01-1.408.576c-.597 0-1.088-.171-1.472-.512-.341-.384-.512-.875-.512-1.472v-40.832c0-.597.192-1.067.576-1.408.384-.384.875-.576 1.472-.576.555 0 1.024.192 1.408.576.384.384.576.853.576 1.408v40.832zM492.43 213.6c0 4.395-.918 8.341-2.752 11.84-1.835 3.499-4.374 6.251-7.616 8.256-3.243 1.963-6.934 2.944-11.072 2.944-4.139 0-7.83-.981-11.072-2.944-3.243-2.005-5.782-4.757-7.616-8.256-1.835-3.499-2.752-7.445-2.752-11.84 0-4.437.917-8.405 2.752-11.904 1.834-3.499 4.373-6.229 7.616-8.192 3.242-1.963 6.933-2.944 11.072-2.944 4.138 0 7.829.981 11.072 2.944 3.242 1.963 5.781 4.693 7.616 8.192 1.834 3.499 2.752 7.467 2.752 11.904zm-4.096 0c0-3.712-.747-7.019-2.24-9.92-1.451-2.944-3.499-5.227-6.144-6.848-2.603-1.621-5.59-2.432-8.96-2.432-3.371 0-6.379.811-9.024 2.432-2.603 1.621-4.651 3.904-6.144 6.848-1.451 2.901-2.176 6.208-2.176 9.92 0 3.712.725 7.04 2.176 9.984 1.493 2.901 3.541 5.163 6.144 6.784 2.645 1.621 5.653 2.432 9.024 2.432 3.37 0 6.357-.811 8.96-2.432 2.645-1.621 4.693-3.883 6.144-6.784 1.493-2.944 2.24-6.272 2.24-9.984zm44.007-22.4c.555 0 .982.171 1.28.512.342.341.512.768.512 1.28v40.96c0 .64-.192 1.152-.576 1.536-.384.341-.853.512-1.408.512-.298 0-.597-.064-.896-.192a2.434 2.434 0 01-.64-.448l-27.456-36.992v35.904c0 .469-.192.875-.576 1.216a1.66 1.66 0 01-1.216.512c-.512 0-.938-.171-1.28-.512a1.663 1.663 0 01-.512-1.216V193.12c0-.597.171-1.067.512-1.408a1.961 1.961 0 011.344-.512c.683 0 1.195.235 1.536.704l27.584 37.184v-36.096c0-.512.171-.939.512-1.28.342-.341.768-.512 1.28-.512zm60.863 42.24c.085.341.128.597.128.768 0 .555-.192 1.003-.576 1.344a1.961 1.961 0 01-1.344.512 2.13 2.13 0 01-1.152-.32 2.673 2.673 0 01-.704-.96l-4.8-11.712h-20.8l-4.736 11.712c-.341.853-.917 1.28-1.728 1.28-.597 0-1.045-.149-1.344-.448-.299-.299-.469-.704-.512-1.216v-.192c0-.256.021-.448.064-.576l16.896-41.344c.341-.853.981-1.28 1.92-1.28.427 0 .789.128 1.088.384.341.213.597.512.768.896l16.832 41.152zm-9.984-14.144l-8.96-21.888-8.832 21.888h17.792zm55.133-28.096c.512 0 .939.192 1.28.576.384.341.576.789.576 1.344v40.96c0 .555-.192 1.024-.576 1.408-.384.341-.853.512-1.408.512-.597 0-1.088-.171-1.472-.512a1.915 1.915 0 01-.576-1.408v-35.2l-15.04 22.784c-.426.555-.917.811-1.472.768h-.128c-.512 0-.981-.256-1.408-.768l-15.04-22.912v35.328c0 .555-.192 1.024-.576 1.408-.341.341-.789.512-1.344.512-.554 0-1.002-.171-1.344-.512-.341-.384-.512-.853-.512-1.408v-40.96c0-.512.171-.96.512-1.344a1.916 1.916 0 011.408-.576c.299 0 .619.085.96.256.342.128.598.32.768.576l16.768 25.152 16.896-25.152c.47-.64 1.046-.917 1.728-.832zm51.018 0c.512 0 .939.192 1.28.576.384.341.576.789.576 1.344v40.96c0 .555-.192 1.024-.576 1.408-.384.341-.853.512-1.408.512-.597 0-1.088-.171-1.472-.512a1.915 1.915 0 01-.576-1.408v-35.2l-15.04 22.784c-.427.555-.917.811-1.472.768h-.128c-.512 0-.981-.256-1.408-.768l-15.04-22.912v35.328c0 .555-.192 1.024-.576 1.408-.341.341-.789.512-1.344.512s-1.003-.171-1.344-.512c-.341-.384-.512-.853-.512-1.408v-40.96c0-.512.171-.96.512-1.344a1.915 1.915 0 011.408-.576c.299 0 .619.085.96.256.341.128.597.32.768.576l16.768 25.152 16.896-25.152c.469-.64 1.045-.917 1.728-.832zm44.645 0c2.347 0 4.459.555 6.336 1.664 1.878 1.067 3.328 2.581 4.352 4.544 1.067 1.92 1.6 4.096 1.6 6.528 0 2.432-.533 4.651-1.6 6.656-1.024 2.005-2.474 3.584-4.352 4.736-1.877 1.152-3.989 1.728-6.336 1.728h-13.248v17.024c0 .555-.192 1.024-.576 1.408-.341.341-.789.512-1.344.512-.554 0-1.024-.171-1.408-.512-.341-.384-.512-.853-.512-1.408v-40.96c0-.555.171-1.003.512-1.344a1.916 1.916 0 011.408-.576h15.168zm0 22.144c2.475 0 4.48-.896 6.016-2.688 1.536-1.792 2.304-4.032 2.304-6.72 0-2.645-.768-4.8-2.304-6.464-1.536-1.664-3.541-2.496-6.016-2.496h-13.248v18.368h13.248zm51.821 19.2c.64.427.96.96.96 1.6 0 .213-.085.491-.256.832-.17.299-.405.533-.704.704a1.897 1.897 0 01-.96.256c-.426 0-.789-.085-1.088-.256-1.194-.683-2.154-1.792-2.88-3.328-.725-1.536-1.088-3.989-1.088-7.36 0-2.987-.832-5.077-2.496-6.272-1.664-1.237-3.648-1.856-5.952-1.856h-14.208v17.216c0 .555-.17 1.024-.512 1.408-.341.341-.789.512-1.344.512-.597 0-1.109-.171-1.536-.512-.426-.384-.64-.853-.64-1.408v-40.96c0-.555.171-1.003.512-1.344a1.916 1.916 0 011.408-.576h17.28c2.432 0 4.608.533 6.528 1.6 1.92 1.024 3.414 2.453 4.48 4.288 1.11 1.835 1.664 3.904 1.664 6.208 0 2.731-.725 5.141-2.176 7.232-1.408 2.048-3.264 3.456-5.568 4.224 1.878.725 3.414 1.963 4.608 3.712 1.195 1.707 1.814 3.797 1.856 6.272.043 2.645.214 4.501.512 5.568.342 1.067.875 1.813 1.6 2.24zm-13.312-19.2a8.74 8.74 0 004.16-1.472c1.28-.853 2.304-2.005 3.072-3.456.768-1.451 1.152-3.115 1.152-4.992 0-2.432-.832-4.437-2.496-6.016-1.621-1.621-3.754-2.432-6.4-2.432h-14.848v18.368h15.36zm60.875.256c0 4.395-.918 8.341-2.752 11.84-1.835 3.499-4.374 6.251-7.616 8.256-3.243 1.963-6.934 2.944-11.072 2.944-4.139 0-7.83-.981-11.072-2.944-3.243-2.005-5.782-4.757-7.616-8.256-1.835-3.499-2.752-7.445-2.752-11.84 0-4.437.917-8.405 2.752-11.904 1.834-3.499 4.373-6.229 7.616-8.192 3.242-1.963 6.933-2.944 11.072-2.944 4.138 0 7.829.981 11.072 2.944 3.242 1.963 5.781 4.693 7.616 8.192 1.834 3.499 2.752 7.467 2.752 11.904zm-4.096 0c0-3.712-.747-7.019-2.24-9.92-1.451-2.944-3.499-5.227-6.144-6.848-2.603-1.621-5.59-2.432-8.96-2.432-3.371 0-6.379.811-9.024 2.432-2.603 1.621-4.651 3.904-6.144 6.848-1.451 2.901-2.176 6.208-2.176 9.92 0 3.712.725 7.04 2.176 9.984 1.493 2.901 3.541 5.163 6.144 6.784 2.645 1.621 5.653 2.432 9.024 2.432 3.37 0 6.357-.811 8.96-2.432 2.645-1.621 4.693-3.883 6.144-6.784 1.493-2.944 2.24-6.272 2.24-9.984zm38.534-22.4c.554 0 1.002.171 1.344.512.384.341.576.789.576 1.344s-.192 1.003-.576 1.344c-.342.299-.79.448-1.344.448H854.59v39.232c0 .555-.192 1.024-.576 1.408-.384.341-.854.512-1.408.512-.598 0-1.088-.171-1.472-.512-.342-.384-.512-.853-.512-1.408v-39.232h-13.248c-.555 0-1.024-.171-1.408-.512-.342-.341-.512-.789-.512-1.344 0-.512.17-.939.512-1.28.384-.341.853-.512 1.408-.512h30.464zm46.846 22.4c0 4.395-.917 8.341-2.752 11.84-1.834 3.499-4.373 6.251-7.616 8.256-3.242 1.963-6.933 2.944-11.072 2.944-4.138 0-7.829-.981-11.072-2.944-3.242-2.005-5.781-4.757-7.616-8.256-1.834-3.499-2.752-7.445-2.752-11.84 0-4.437.918-8.405 2.752-11.904 1.835-3.499 4.374-6.229 7.616-8.192 3.243-1.963 6.934-2.944 11.072-2.944 4.139 0 7.83.981 11.072 2.944 3.243 1.963 5.782 4.693 7.616 8.192 1.835 3.499 2.752 7.467 2.752 11.904zm-4.096 0c0-3.712-.746-7.019-2.24-9.92-1.45-2.944-3.498-5.227-6.144-6.848-2.602-1.621-5.589-2.432-8.96-2.432-3.37 0-6.378.811-9.024 2.432-2.602 1.621-4.65 3.904-6.144 6.848-1.45 2.901-2.176 6.208-2.176 9.92 0 3.712.726 7.04 2.176 9.984 1.494 2.901 3.542 5.163 6.144 6.784 2.646 1.621 5.654 2.432 9.024 2.432 3.371 0 6.358-.811 8.96-2.432 2.646-1.621 4.694-3.883 6.144-6.784 1.494-2.944 2.24-6.272 2.24-9.984zm43.945-19.072c.64.384.96.917.96 1.6 0 .384-.15.811-.448 1.28-.384.469-.875.704-1.472.704-.342 0-.683-.107-1.024-.32-3.414-2.261-7.147-3.392-11.2-3.392-3.456 0-6.592.811-9.408 2.432-2.774 1.621-4.971 3.904-6.592 6.848-1.579 2.901-2.368 6.208-2.368 9.92 0 3.797.81 7.168 2.432 10.112 1.621 2.901 3.818 5.163 6.592 6.784 2.816 1.579 5.93 2.368 9.344 2.368 4.053 0 7.765-1.109 11.136-3.328a2.02 2.02 0 011.088-.32c.597 0 1.088.256 1.472.768.298.341.448.747.448 1.216 0 .683-.299 1.195-.896 1.536-1.664 1.109-3.712 2.048-6.144 2.816-2.432.725-4.8 1.088-7.104 1.088-4.054 0-7.808-.96-11.264-2.88-3.414-1.963-6.144-4.693-8.192-8.192-2.006-3.499-3.008-7.488-3.008-11.968 0-4.309 1.002-8.213 3.008-11.712 2.005-3.541 4.714-6.293 8.128-8.256 3.413-2.005 7.189-3.008 11.328-3.008a24 24 0 016.976 1.024c2.304.683 4.373 1.643 6.208 2.88zm47.127 19.072c0 4.395-.92 8.341-2.755 11.84-1.835 3.499-4.373 6.251-7.616 8.256-3.243 1.963-6.933 2.944-11.072 2.944-4.139 0-7.829-.981-11.072-2.944-3.243-2.005-5.781-4.757-7.616-8.256-1.835-3.499-2.752-7.445-2.752-11.84 0-4.437.917-8.405 2.752-11.904 1.835-3.499 4.373-6.229 7.616-8.192 3.243-1.963 6.933-2.944 11.072-2.944 4.139 0 7.829.981 11.072 2.944 3.243 1.963 5.781 4.693 7.616 8.192 1.835 3.499 2.755 7.467 2.755 11.904zm-4.099 0c0-3.712-.747-7.019-2.24-9.92-1.451-2.944-3.499-5.227-6.144-6.848-2.603-1.621-5.589-2.432-8.96-2.432-3.371 0-6.379.811-9.024 2.432-2.603 1.621-4.651 3.904-6.144 6.848-1.451 2.901-2.176 6.208-2.176 9.92 0 3.712.725 7.04 2.176 9.984 1.493 2.901 3.541 5.163 6.144 6.784 2.645 1.621 5.653 2.432 9.024 2.432 3.371 0 6.357-.811 8.96-2.432 2.645-1.621 4.693-3.883 6.144-6.784 1.493-2.944 2.24-6.272 2.24-9.984zm36.009 18.624c.55 0 1 .171 1.34.512.39.341.58.789.58 1.344s-.19 1.024-.58 1.408c-.34.341-.79.512-1.34.512h-22.85c-.55 0-1.02-.171-1.41-.512-.34-.384-.51-.853-.51-1.408v-40.96c0-.555.19-1.003.58-1.344.38-.384.87-.576 1.47-.576.55 0 1.02.192 1.41.576.38.341.57.789.57 1.344v39.104h20.74zm46.89-20.032c2.56.64 4.65 1.92 6.27 3.84 1.62 1.92 2.43 4.416 2.43 7.488 0 4.181-1.3 7.317-3.9 9.408-2.56 2.048-5.76 3.072-9.6 3.072h-17.22c-.55 0-1.02-.171-1.4-.512-.35-.384-.52-.853-.52-1.408v-40.96c0-.555.17-1.003.52-1.344.38-.384.85-.576 1.4-.576h16.96c3.59 0 6.38.981 8.39 2.944 2.05 1.963 3.07 4.651 3.07 8.064 0 2.261-.56 4.288-1.66 6.08-1.11 1.792-2.69 3.093-4.74 3.904zm2.3-9.664c0-2.347-.7-4.181-2.11-5.504-1.36-1.365-3.28-2.048-5.76-2.048h-14.27v16h14.27c2.31-.043 4.18-.789 5.63-2.24 1.5-1.451 2.24-3.52 2.24-6.208zm-7.29 29.696c2.86 0 5.16-.725 6.91-2.176 1.79-1.451 2.69-3.627 2.69-6.528 0-2.987-.92-5.184-2.75-6.592-1.8-1.408-4.12-2.112-6.98-2.112h-14.72v17.408h14.85zm47.93-39.36c0 .299-.13.704-.38 1.216l-14.28 19.648v20.352c0 .555-.19 1.024-.57 1.408-.39.341-.86.512-1.41.512-.56 0-1.02-.171-1.41-.512-.34-.384-.51-.853-.51-1.408v-20.288l-14.34-19.584a1.964 1.964 0 01-.51-1.344c0-.512.21-.96.64-1.344.43-.384.9-.576 1.41-.576.68 0 1.22.299 1.6.896l13.25 18.048 12.93-18.048c.46-.597 1.02-.896 1.66-.896.51 0 .96.213 1.34.64.39.384.58.811.58 1.28zm28.48-1.664c.47.043.85.256 1.15.64.34.341.52.768.52 1.28v40.96c0 .555-.22 1.024-.64 1.408-.39.341-.88.512-1.48.512-.55 0-1.02-.171-1.4-.512a1.895 1.895 0 01-.58-1.408v-37.44l-8 4.736c-.3.171-.6.256-.9.256-.55 0-1.04-.213-1.47-.64-.38-.427-.57-.896-.57-1.408 0-.299.08-.597.25-.896.21-.299.47-.533.77-.704l10.82-6.528c.42-.256.93-.341 1.53-.256zm15.75 42.816a2.218 2.218 0 01-.64 1.408c-.39.384-.86.576-1.41.576-.6 0-1.09-.171-1.47-.512-.35-.384-.52-.875-.52-1.472v-40.832c0-.597.2-1.067.58-1.408.38-.384.87-.576 1.47-.576.56 0 1.03.192 1.41.576.38.384.58.853.58 1.408v40.832zm42.81-42.816c.56 0 .98.171 1.28.512.34.341.51.768.51 1.28v40.96c0 .64-.19 1.152-.57 1.536-.39.341-.86.512-1.41.512-.3 0-.6-.064-.9-.192a2.52 2.52 0 01-.64-.448l-27.45-36.992v35.904c0 .469-.19.875-.58 1.216-.34.341-.75.512-1.21.512-.52 0-.94-.171-1.28-.512a1.636 1.636 0 01-.52-1.216V193.12c0-.597.17-1.067.52-1.408.38-.341.83-.512 1.34-.512.68 0 1.19.235 1.54.704l27.58 37.184v-36.096c0-.512.17-.939.51-1.28.34-.341.77-.512 1.28-.512zm44.58 3.328c.64.384.96.917.96 1.6 0 .384-.15.811-.45 1.28-.38.469-.87.704-1.47.704-.34 0-.68-.107-1.02-.32-3.42-2.261-7.15-3.392-11.2-3.392-3.46 0-6.6.811-9.41 2.432-2.78 1.621-4.97 3.904-6.59 6.848-1.58 2.901-2.37 6.208-2.37 9.92 0 3.797.81 7.168 2.43 10.112 1.62 2.901 3.82 5.163 6.59 6.784 2.82 1.579 5.93 2.368 9.35 2.368 4.05 0 7.76-1.109 11.13-3.328.34-.213.71-.32 1.09-.32.6 0 1.09.256 1.47.768.3.341.45.747.45 1.216 0 .683-.3 1.195-.9 1.536-1.66 1.109-3.71 2.048-6.14 2.816-2.43.725-4.8 1.088-7.1 1.088-4.06 0-7.81-.96-11.27-2.88-3.41-1.963-6.14-4.693-8.19-8.192-2.01-3.499-3.01-7.488-3.01-11.968 0-4.309 1-8.213 3.01-11.712 2.01-3.541 4.71-6.293 8.13-8.256 3.41-2.005 7.19-3.008 11.33-3.008 2.39 0 4.71.341 6.97 1.024 2.31.683 4.38 1.643 6.21 2.88zm39.25-3.328c.6 0 1.07.192 1.41.576.38.341.58.811.58 1.408v40.832c-.05.597-.26 1.088-.64 1.472-.39.341-.86.512-1.41.512-.56 0-1.03-.192-1.41-.576a1.934 1.934 0 01-.58-1.408v-19.072h-25.98v19.072a2.168 2.168 0 01-.64 1.408c-.38.384-.85.576-1.41.576-.59 0-1.09-.171-1.47-.512-.34-.384-.51-.875-.51-1.472v-40.832c0-.597.19-1.067.57-1.408.39-.384.88-.576 1.48-.576.55 0 1.02.192 1.4.576.39.384.58.853.58 1.408v18.048h25.98v-18.048c0-.555.2-1.024.58-1.408.43-.384.92-.576 1.47-.576z"
		fill="#000"/>
</svg>
